<?xml version="1.0" encoding="UTF-8"?>
<svg version="1.1" xmlns="http://www.w3.org/2000/svg" width="1024" height="1024">
<path d="M0 0 C337.92 0 675.84 0 1024 0 C1024 337.92 1024 675.84 1024 1024 C686.08 1024 348.16 1024 0 1024 C0 686.08 0 348.16 0 0 Z " fill="#4DC6E1" transform="translate(0,0)"/>
<path d="M0 0 C1.6470222 0.2702222 3.29415767 0.53975496 4.94140625 0.80859375 C54.87335279 9.41959433 102.12919472 37.79369347 133 78 C133.42635742 78.55526367 133.85271484 79.11052734 134.29199219 79.68261719 C141.46420636 89.0854984 148.01221235 98.80185736 154 109 C154.38397949 109.65129883 154.76795898 110.30259766 155.16357422 110.97363281 C164.51618857 127.07847578 170.86861143 144.54420618 175.4375 162.5625 C175.78977661 163.95094116 175.78977661 163.95094116 176.14916992 165.36743164 C179.77767053 180.56253358 180.43813622 195.51717636 180.4375 211.0625 C180.44009827 212.57444946 180.44009827 212.57444946 180.44274902 214.11694336 C180.39791711 273.73395625 157.27826796 326.92354804 115.875 369.375 C110.86396405 374.27233335 105.49864134 378.66530464 100 383 C99.16855469 383.67546875 98.33710937 384.3509375 97.48046875 385.046875 C96.70316406 385.67078125 95.92585938 386.2946875 95.125 386.9375 C94.10792969 387.75541016 94.10792969 387.75541016 93.0703125 388.58984375 C89.28682822 391.16689625 85.9436107 392.27384831 81.375 392.1875 C80.61960937 392.18105469 79.86421875 392.17460938 79.0859375 392.16796875 C77 392 77 392 74 391 C74.66 392.65 75.32 394.3 76 396 C85.58891448 396.13217227 95.0013646 395.7374946 104.5625 395 C113.70418612 394.35789997 122.83491238 393.7574315 132 393.625 C132.83474854 393.59921875 133.66949707 393.5734375 134.52954102 393.546875 C135.30354248 393.54429687 136.07754395 393.54171875 136.875 393.5390625 C137.53242187 393.53084473 138.18984375 393.52262695 138.8671875 393.51416016 C144.30367819 394.7525549 148.45740983 399.20454893 152.28823853 403.02081299 C152.78465265 403.512696 153.28106677 404.00457901 153.79252374 404.51136756 C155.44146738 406.14773143 157.08326158 407.79107759 158.72509766 409.43457031 C159.91119878 410.61468227 161.09770757 411.79438462 162.28459167 412.97370911 C165.49795964 416.16945171 168.70485245 419.37161603 171.91005754 422.5755434 C173.91476476 424.57882676 175.9208903 426.5806783 177.9275322 428.58202362 C184.9333158 435.56932 191.93392918 442.56174856 198.9296875 449.55908203 C205.44278908 456.07338538 211.96696515 462.57644864 218.49643481 469.07434201 C224.10967546 474.66140574 229.71515187 480.25617967 235.31468046 485.85698581 C238.6557576 489.19857207 241.99984356 492.53700222 245.35176468 495.86771393 C248.50434979 499.00089244 251.64712954 502.14358882 254.7827549 505.29373741 C255.93217651 506.44524502 257.08499329 507.59337558 258.24150276 508.73776436 C270.97144233 521.34293279 270.97144233 521.34293279 272.625 530.4375 C271.1962862 538.58116869 264.59377353 544.84907532 258.89648438 550.49169922 C258.21274246 551.18069809 257.52900055 551.86969696 256.82453918 552.57957458 C254.58836939 554.82882516 252.34155323 557.06706749 250.09375 559.3046875 C248.52442345 560.8760375 246.95554225 562.44783239 245.38708496 564.02005005 C242.1104008 567.30114082 238.82839319 570.57678498 235.54248047 573.84863281 C231.33580691 578.03817332 227.14280302 582.24109664 222.95366669 586.44816399 C219.72143887 589.69123825 216.48209266 592.9271262 213.24055481 596.16089249 C211.69143098 597.70801891 210.14452198 599.25736637 208.59989929 600.80898666 C206.44162187 602.97489707 204.27393594 605.13093495 202.10351562 607.28466797 C201.47061111 607.92364517 200.8377066 608.56262238 200.18562317 609.22096252 C195.67135587 613.67126086 191.14929586 617.42545417 184.5 617.4375 C183.7884375 617.45683594 183.076875 617.47617187 182.34375 617.49609375 C176.75637425 616.31343255 172.58634665 611.83800534 168.66706848 607.92776489 C168.16586524 607.4303872 167.664662 606.93300951 167.14827079 606.42055976 C165.48316624 604.76570964 163.82522766 603.10386895 162.16723633 601.44189453 C160.9696689 600.24867767 159.77168531 599.05587837 158.57331848 597.86346436 C155.3291236 594.63263123 152.09133371 591.39545156 148.8550818 588.15666437 C146.15050853 585.45101983 143.44296112 582.74836118 140.73545951 580.0456475 C134.34838541 573.66965807 127.96664172 567.28836766 121.58813477 560.90380859 C115.01097811 554.32060742 108.42468741 547.74664706 101.83387548 541.17711937 C96.170587 535.53144736 90.51312328 529.87998459 84.860264 524.22387016 C81.48608689 520.84788068 78.10972599 517.47415123 74.72770119 514.10602188 C71.54859627 510.93949189 68.37683099 507.7657889 65.21053886 504.58644867 C64.04853474 503.4220788 62.8839746 502.26025323 61.71666718 501.1012001 C60.12138899 499.51639052 58.5356762 497.92257465 56.95198059 496.32620239 C56.06286893 495.43725847 55.17375727 494.54831455 54.25770283 493.63243294 C44.3218075 482.04739269 49.4994128 461.80334305 50.5 447.625 C50.64496749 445.52086334 50.78950201 443.41669681 50.93359375 441.3125 C51.28407586 436.20797545 51.6404005 431.10389002 52 426 C51.08250977 425.70883301 50.16501953 425.41766602 49.21972656 425.11767578 C45.43760732 423.80477452 42.15125769 421.94788076 38.75 419.875 C37.76157104 419.27558594 37.76157104 419.27558594 36.75317383 418.6640625 C31.13227051 415.19364032 25.98373892 411.34094512 21 407 C20.15824219 406.2678125 19.31648438 405.535625 18.44921875 404.78125 C15.93455243 402.55277484 13.45953868 400.2890756 11 398 C10.32195312 397.37609375 9.64390625 396.7521875 8.9453125 396.109375 C-2.27558678 385.3841781 -14.05718895 371.02843656 -14.75 354.875 C-14.50479223 350.71157633 -14.20704545 349.29331438 -11.75 345.8125 C-7.67680629 343.12789505 -5.00524671 341.71953623 -0.0625 341.75 C0.77152344 341.74484375 1.60554687 341.7396875 2.46484375 341.734375 C5.27906785 342.02923977 7.38348451 342.95013842 10 344 C17.64935181 344.99673372 23.34597683 343.6816147 30 340 C31.04929687 339.45214844 32.09859375 338.90429688 33.1796875 338.33984375 C42.21532042 333.43967311 50.13873264 327.59997176 58 321 C58.91910156 320.23558594 59.83820313 319.47117187 60.78515625 318.68359375 C82.34590771 300.05537108 95.80278335 273.18537361 103 246 C103.33902344 244.783125 103.67804688 243.56625 104.02734375 242.3125 C112.19427744 207.38662688 103.74800079 168.69575359 85.0625 138.5625 C80.85660257 131.96336952 76.14618015 125.89786938 71 120 C70.39414062 119.27296875 69.78828125 118.5459375 69.1640625 117.796875 C54.41877883 100.31604097 33.44357358 87.49179244 12 80 C11.36771484 79.77473633 10.73542969 79.54947266 10.08398438 79.31738281 C-25.24350681 66.87287461 -62.97959193 70.36444814 -96.6875 86.125 C-131.10032411 102.83431565 -156.60081103 132.27574626 -169.78613281 168.13818359 C-171.44833 173.02918194 -172.79195082 177.97933823 -174 183 C-174.24556641 183.99604248 -174.24556641 183.99604248 -174.49609375 185.01220703 C-180.26497841 209.32138114 -177.58391294 235.6700548 -169 259 C-168.73203613 259.73395996 -168.46407227 260.46791992 -168.18798828 261.22412109 C-161.78241127 278.56317624 -153.80379781 293.75470003 -142 308 C-141.33226562 308.82113281 -140.66453125 309.64226562 -139.9765625 310.48828125 C-119.00705226 335.26653927 -84.87548869 350.90534845 -53 355 C-47.08342153 355.37968037 -41.16293819 355.46007129 -35.23632812 355.56640625 C-34.07423828 355.59605469 -32.91214844 355.62570312 -31.71484375 355.65625 C-30.13884399 355.68428711 -30.13884399 355.68428711 -28.53100586 355.71289062 C-26 356 -26 356 -24 358 C-23.55280757 359.42236044 -23.16574782 360.86394684 -22.8125 362.3125 C-15.61726172 387.15576054 6.81175494 405.71530667 28 419 C25.63320759 421.77387877 23.67092517 422.62581387 20.16796875 423.53515625 C19.20310547 423.78716797 18.23824219 424.03917969 17.24414062 424.29882812 C16.23544922 424.55083984 15.22675781 424.80285156 14.1875 425.0625 C13.22134766 425.31837891 12.25519531 425.57425781 11.25976562 425.83789062 C-3.60050891 429.64345138 -17.93258237 430.40712928 -33.1875 430.375 C-34.15810364 430.37445618 -35.12870728 430.37391235 -36.12872314 430.37335205 C-88.31352212 430.23918434 -135.37186061 413.21858385 -175 379 C-175.79148437 378.319375 -176.58296875 377.63875 -177.3984375 376.9375 C-179.97624461 374.66836235 -182.49544371 372.34982078 -185 370 C-185.52464844 369.50935059 -186.04929687 369.01870117 -186.58984375 368.51318359 C-211.51140771 345.00892567 -231.04689233 313.83286554 -241 281 C-241.34160156 279.88238281 -241.68320312 278.76476562 -242.03515625 277.61328125 C-243.07354416 274.08750026 -244.04461752 270.54911162 -245 267 C-245.52787109 265.13408203 -245.52787109 265.13408203 -246.06640625 263.23046875 C-259.53961975 214.33385441 -249.91246454 156.01374967 -226.02978516 111.90332031 C-224.97431718 109.95253123 -223.946507 107.98853481 -222.91796875 106.0234375 C-210.7649659 83.22340755 -193.18756195 62.99517144 -173 47 C-172.04609375 46.21753906 -171.0921875 45.43507813 -170.109375 44.62890625 C-156.08472561 33.39120642 -140.26996633 24.55699827 -124 17 C-123.35111816 16.69755371 -122.70223633 16.39510742 -122.03369141 16.08349609 C-106.89567066 9.0941366 -91.34122154 3.41044107 -75 0 C-74.30229492 -0.15098145 -73.60458984 -0.30196289 -72.88574219 -0.45751953 C-49.24669376 -5.37745619 -23.62850042 -4.29396715 0 0 Z " fill="#FDFEFE" transform="translate(564,239)"/>
<path d="M0 0 C3.25851645 -0.16552817 6.51372152 -0.27377604 9.77514648 -0.36242676 C10.75126892 -0.41399933 11.72739136 -0.4655719 12.73309326 -0.51870728 C17.5285016 -0.58488372 20.64987196 -0.30249758 24.23448181 3.02886963 C24.92448336 3.66683786 25.6144849 4.3048061 26.32539558 4.9621067 C30.97410371 9.4518295 35.57502598 13.98508139 40.14355469 18.55603027 C41.28251255 19.69199057 42.42167333 20.82774744 43.5610199 21.96331787 C46.63331819 25.02683916 49.70242012 28.09354283 52.77065301 31.1611352 C54.6898221 33.07959092 56.60970254 34.9973318 58.52983665 36.91482162 C65.23367787 43.60943481 71.93495486 50.30660231 78.63378906 57.00622559 C84.87204277 63.24508147 91.11586887 69.47832192 97.36229831 75.70899117 C102.73503446 81.06865515 108.10391163 86.43216403 113.46979588 91.79868782 C116.67059003 94.99973676 119.87291361 98.19921786 123.07912636 101.39484024 C126.09018033 104.39621713 129.09640101 107.40235208 132.09897804 110.41220856 C133.20057734 111.51485372 134.30388343 112.61579677 135.40902328 113.71489334 C136.91861979 115.21676835 138.42190199 116.72469786 139.92378235 118.23428345 C140.76605031 119.07600664 141.60831827 119.91772984 142.4761095 120.78495979 C145.34160472 123.98087856 147.34999992 126.76965294 148.19702148 131.00476074 C146.88937822 138.41473927 139.85406044 144.26542284 134.68286133 149.40270996 C133.68169029 150.40913795 133.68169029 150.40913795 132.66029358 151.43589783 C130.47698111 153.62793482 128.28652835 155.81266683 126.09545898 157.99694824 C124.56632767 159.52742824 123.03749322 161.0582049 121.50894165 162.58926392 C118.31641019 165.78473351 115.12031541 168.97658361 111.92163086 172.16589355 C107.82136517 176.25472681 103.73019584 180.35252586 99.64162254 184.4530468 C96.4917157 187.61017464 93.3370685 190.76253106 90.18095779 193.91345596 C88.67000129 195.42307864 87.16052814 196.93418748 85.65256882 198.44680405 C83.54897544 200.55547068 81.43908795 202.65762998 79.32739258 204.75817871 C78.70599899 205.38362076 78.08460541 206.00906281 77.44438171 206.65345764 C76.86697739 207.22522232 76.28957306 207.796987 75.69467163 208.38607788 C74.94864717 209.13097127 74.94864717 209.13097127 74.1875515 209.89091301 C71.39200612 212.23341548 68.97401946 213.13350148 65.38452148 213.75476074 C56.09692814 212.36162174 48.48374905 201.18379533 42.01782227 194.70495605 C40.86739874 193.55588996 39.71676312 192.40703618 38.56593323 191.25837708 C35.46280041 188.15977542 32.36280547 185.05805264 29.2635293 181.95559406 C26.01352271 178.70304453 22.76106435 175.45294814 19.50900269 172.20245361 C14.0552284 166.75049409 8.60355615 161.29643932 3.15307617 155.84118652 C-3.14923512 149.53342029 -9.45515915 143.22928294 -15.76294506 136.9269917 C-21.18574065 131.50873073 -26.60658937 126.08852776 -32.02580845 120.66668963 C-35.25971053 117.43122847 -38.49428475 114.19644704 -41.73061752 110.96341705 C-44.76822047 107.92869833 -47.80337515 104.89155225 -50.83664131 101.85249901 C-51.95082503 100.73699125 -53.06586391 99.62233691 -54.18181038 98.50859261 C-55.70253809 96.99058997 -57.22016395 95.46955283 -58.73703003 93.94769287 C-60.01287618 92.67128119 -60.01287618 92.67128119 -61.31449699 91.3690834 C-65.50355539 86.92299886 -65.68070855 83.66083259 -65.61547852 77.81726074 C-65.61088623 76.96108154 -65.60629395 76.10490234 -65.6015625 75.22277832 C-65.40385229 60.28976575 -64.78458591 44.94663649 -62.36547852 30.19226074 C-56.09007679 30.72218355 -50.30065633 31.23547553 -44.92797852 34.81726074 C-41.54316899 36.6335 -39.15739872 36.53698076 -35.36547852 36.19226074 C-32.80483039 35.36178027 -31.74708856 34.6883538 -30.11547852 32.56726074 C-29.00560261 29.05265372 -28.70123321 25.79918415 -29.36547852 22.19226074 C-31.0715894 18.98572498 -31.0715894 18.98572498 -34.36547852 17.19226074 C-37.83812387 16.50782983 -40.89822467 16.45891602 -44.36547852 17.19226074 C-47.60664175 20.02827857 -48.9812056 23.15479807 -50.36547852 27.19226074 C-51.62360352 27.06851074 -52.88172852 26.94476074 -54.17797852 26.81726074 C-54.88567383 26.74765137 -55.59336914 26.67804199 -56.32250977 26.60632324 C-58.36547852 26.19226074 -58.36547852 26.19226074 -61.36547852 24.19226074 C-62.22116137 19.04274588 -62.47976209 13.11841488 -59.61547852 8.56726074 C-56.27777964 5.04413415 -53.48788841 3.99308118 -48.70239258 3.59802246 C-47.7791217 3.51809052 -46.85585083 3.43815857 -45.90460205 3.35580444 C-44.90684753 3.2786319 -43.90909302 3.20145935 -42.88110352 3.12194824 C-41.31027008 2.99301682 -41.31027008 2.99301682 -39.70770264 2.86148071 C-37.47872609 2.68096544 -35.24940015 2.50472165 -33.01977539 2.33239746 C-29.6962937 2.07355487 -26.37476704 1.79610972 -23.05297852 1.51647949 C-15.37442142 0.89003547 -7.69099787 0.43936604 0 0 Z " fill="#4EC6E1" transform="translate(683.365478515625,637.8077392578125)"/>
<path d="M0 0 C10.67752326 6.54796833 17.67808342 17.09847665 23.8125 27.6875 C24.29332031 28.50605469 24.77414062 29.32460938 25.26953125 30.16796875 C36.55980493 50.99225132 43.54786953 80.6464942 37.25 103.875 C35.0422747 109.87071712 31.89383236 114.79831629 27.8125 119.6875 C27.23886719 120.38488281 26.66523438 121.08226562 26.07421875 121.80078125 C21.65121754 126.678395 16.56198412 129.65746237 10.83276367 132.75170898 C4.27986784 136.37020611 0.06638999 140.49761986 -2.1875 147.6875 C-2.47661722 151.11239528 -2.44334503 154.52573805 -2.41796875 157.9609375 C-2.41796371 158.97967957 -2.41795868 159.99842163 -2.41795349 161.04803467 C-2.41443649 164.38631499 -2.39547257 167.72428357 -2.375 171.0625 C-2.36678377 173.38785723 -2.3588107 175.71321534 -2.35107422 178.03857422 C-2.26511655 197.93156056 -1.92624363 217.80811762 -1.1875 237.6875 C-1.15827454 238.48941772 -1.12904907 239.29133545 -1.09893799 240.11755371 C0.12144299 311.21992482 0.12144299 311.21992482 15.0625 380.125 C16.89341816 385.77759654 17.24154425 391.10475956 17.3125 397 C17.34005371 398.25478149 17.34005371 398.25478149 17.36816406 399.53491211 C17.30050128 406.33434531 15.51349963 411.49316711 11.1015625 416.7109375 C10.55242187 417.15695312 10.00328125 417.60296875 9.4375 418.0625 C8.89351563 418.52398438 8.34953125 418.98546875 7.7890625 419.4609375 C1.97350033 423.06980414 -3.93245526 423.05316191 -10.5625 423.0625 C-11.47 423.08699219 -12.3775 423.11148437 -13.3125 423.13671875 C-20.46517634 423.1676381 -25.66701162 421.65466997 -31.17578125 417.01171875 C-38.15606486 408.38417057 -38.88995466 401.7063829 -38.1875 390.6875 C-37.36505527 385.97680683 -36.16170253 381.415633 -34.875 376.8125 C-30.67779231 361.3380349 -27.88966315 346.04302633 -26.1875 330.125 C-26.06293427 328.98272949 -26.06293427 328.98272949 -25.93585205 327.81738281 C-24.61148401 315.62353316 -23.51139264 303.41600686 -22.5625 291.1875 C-22.47790527 290.11240677 -22.47790527 290.11240677 -22.39160156 289.01559448 C-22.02297828 284.27318239 -21.69532753 279.52889217 -21.38879395 274.78207397 C-21.24360733 272.55006081 -21.09387638 270.31834162 -20.94128418 268.08682251 C-19.27770882 243.41039115 -18.75218276 218.77938831 -18.70703125 194.04956055 C-18.69583089 188.82697842 -18.64710421 183.60537957 -18.59108734 178.38311291 C-18.55390602 174.30557743 -18.54342968 170.22828922 -18.5403595 166.15059853 C-18.53434345 164.22210296 -18.51841246 162.2936098 -18.49198914 160.36528587 C-18.45783723 157.69478015 -18.46161802 155.02683705 -18.47460938 152.35620117 C-18.45617981 151.57765778 -18.43775024 150.79911438 -18.41876221 149.99697876 C-18.49949586 144.69341305 -19.96371615 141.98007069 -23.57810211 138.12074757 C-26.12825188 135.84971442 -28.90435725 134.35652063 -31.9375 132.8125 C-44.53692684 126.01590074 -53.08751658 116.73131909 -58.625 103.4375 C-65.87276574 79.07870471 -56.68880544 50.59214952 -45.3125 28.875 C-41.80611443 22.40697541 -37.73994896 16.4711144 -33.1875 10.6875 C-32.68605469 10.00945312 -32.18460938 9.33140625 -31.66796875 8.6328125 C-24.0465001 -1.15122163 -11.84183666 -4.92191565 0 0 Z " fill="#FDFEFE" transform="translate(273.1875,242.3125)"/>
<path d="M0 0 C1.67542976 0.28604898 3.34385343 0.61781233 5 1 C5.01030746 2.25058701 5.02061493 3.50117401 5.03123474 4.78965759 C5.12878702 16.54759687 5.23150336 28.30548106 5.33933926 40.06333065 C5.39461742 46.10885183 5.4480451 52.1543778 5.49731445 58.19995117 C5.544886 64.02898589 5.59722591 69.8579597 5.65294075 75.68692207 C5.67339709 77.9161586 5.69210461 80.14541186 5.70907402 82.37467766 C5.73304571 85.48544264 5.76310978 88.59609129 5.79467773 91.70678711 C5.8004332 92.63826569 5.80618866 93.56974426 5.81211853 94.52944946 C5.45042267 98.58771853 5.45042267 98.58771853 7 102 C9.5 102.16666667 9.5 102.16666667 12 102 C14.16935784 99.83064216 13.18668507 94.72307801 13.20532227 91.70678711 C13.21522186 90.73128403 13.22512146 89.75578094 13.23532104 88.75071716 C13.26703948 85.50961782 13.29173419 82.26850378 13.31640625 79.02734375 C13.33696686 76.78674426 13.35796308 74.54614873 13.37937927 72.30555725 C13.43469225 66.39544877 13.4840607 60.48530475 13.53222656 54.57513428 C13.5823744 48.54940614 13.63809545 42.52372988 13.69335938 36.49804688 C13.80105372 24.66540886 13.90247348 12.83272588 14 1 C15.32 1 16.64 1 18 1 C20.15731803 3.15731803 19.17583427 8.18944718 19.18945312 11.18554688 C19.19774643 12.14969009 19.20603973 13.11383331 19.21458435 14.10719299 C19.23202693 16.20796538 19.2471821 18.30875769 19.26036072 20.40956116 C19.28131127 23.72845667 19.30833944 27.0472519 19.33703613 30.36608887 C19.40702897 38.60967065 19.46633243 46.85332352 19.52606201 55.09698486 C19.57689722 62.0573801 19.63169608 69.01772173 19.69187927 75.9780426 C19.71856161 79.25809155 19.73931124 82.53814517 19.7598877 85.8182373 C19.77648311 87.81697835 19.79335428 89.81571713 19.81054688 91.81445312 C19.8168235 93.19528831 19.8168235 93.19528831 19.82322693 94.60401917 C19.46004362 98.62248326 19.46004362 98.62248326 21 102 C23.5 102.16666667 23.5 102.16666667 26 102 C28.15565595 99.84434405 27.17582365 94.82363951 27.18945312 91.83032227 C27.19774643 90.86778534 27.20603973 89.90524841 27.21458435 88.9135437 C27.2320276 86.81604753 27.24718258 84.71853141 27.26036072 82.6210041 C27.28131556 79.30603457 27.30834417 75.99116526 27.33703613 72.67625427 C27.39685001 65.63837432 27.44894666 58.60044824 27.5 51.5625 C27.55914218 43.4138986 27.62139046 35.26534647 27.69187927 27.11683464 C27.71853409 23.84292539 27.7393015 20.56901144 27.7598877 17.2950592 C27.7764861 15.29639448 27.79335754 13.297732 27.81054688 11.29907227 C27.81473129 10.38211075 27.81891571 9.46514923 27.82322693 8.520401 C27.88615867 2.22768266 27.88615867 2.22768266 29 0 C30.32 0.66 31.64 1.32 33 2 C33.01030746 3.23805893 33.02061493 4.47611786 33.03123474 5.75169373 C33.12878746 17.39190429 33.23150384 29.03205923 33.33933926 40.67217922 C33.39461717 46.65716605 33.44804481 52.64215772 33.49731445 58.62719727 C33.54488636 64.39787773 33.59722629 70.16849668 33.65294075 75.93910408 C33.67339692 78.14601176 33.69210447 80.35293634 33.70907402 82.55987358 C33.73304608 85.63950616 33.7631101 88.71902126 33.79467773 91.79858398 C33.80331093 93.18177574 33.80331093 93.18177574 33.81211853 94.59291077 C33.4558931 98.61754436 33.4558931 98.61754436 35 102 C36.66617115 102.04063832 38.33388095 102.042721 40 102 C41.12781349 99.74437303 41.13603654 98.50444749 41.15821838 96.00106812 C41.1680072 95.16531754 41.17779602 94.32956696 41.18788147 93.4684906 C41.19363693 92.54995804 41.1993924 91.63142548 41.20532227 90.68505859 C41.21522186 89.71916306 41.22512146 88.75326752 41.23532104 87.75810242 C41.26699216 84.55490599 41.29171565 81.35169472 41.31640625 78.1484375 C41.33697093 75.93168749 41.35796727 73.71494145 41.37937927 71.49819946 C41.43465012 65.65550949 41.48403727 59.81278384 41.53222656 53.97003174 C41.58240502 48.01123875 41.63811014 42.05249775 41.69335938 36.09375 C41.80100226 24.39587772 41.90243359 12.69796035 42 1 C43.32 1.33 44.64 1.66 46 2 C47.82463679 12.5454064 48.8071737 23.08554357 49.69140625 33.7421875 C49.84265078 35.5229157 49.99434686 37.3036056 50.14646912 39.08425903 C50.54272399 43.73357512 50.93407173 48.38328948 51.32397461 53.03314209 C51.95021062 60.49429231 52.58294447 67.9548901 53.21772575 75.41531754 C53.43735908 78.00693199 53.65421704 80.59876762 53.8707428 83.19064331 C54.0056205 84.78579425 54.14058014 86.38093825 54.27563477 87.97607422 C54.36371147 89.04380318 54.36371147 89.04380318 54.4535675 90.13310242 C54.82193293 94.44937163 55.36368336 98.71570254 56 103 C57.09811812 114.45180327 54.17291413 125.01201358 46.87890625 134.0390625 C43.64354755 137.41567386 40.08200207 140.42284475 36.48828125 143.41015625 C31.54331703 148.55695574 30.62398476 153.60606882 30.64355469 160.57055664 C30.64151031 161.29392212 30.63946594 162.0172876 30.63735962 162.76257324 C30.63436365 165.14536227 30.65283447 167.52744952 30.671875 169.91015625 C30.67494271 171.59948049 30.67681112 173.28880729 30.67755127 174.97813416 C30.68215157 178.52971025 30.69653701 182.08105934 30.71875 185.63256836 C30.74654003 190.08876926 30.7578272 194.54479028 30.76256275 199.00106907 C30.78710999 220.01906497 31.10415475 240.99957585 32 262 C32.03526794 262.84851532 32.07053589 263.69703064 32.10687256 264.57125854 C32.30305515 269.19588641 32.54078901 273.81657935 32.8125 278.4375 C32.85190704 279.11038055 32.89131409 279.78326111 32.93191528 280.47653198 C33.65271715 292.53224216 34.72571652 304.54698583 35.9375 316.5625 C36.01690826 317.36517303 36.09631653 318.16784607 36.1781311 318.99484253 C37.16681889 328.88413776 38.52411043 338.62420291 40.36132812 348.39233398 C41.03681496 352.2079567 41.43274627 355.98224571 41.76245117 359.83886719 C41.99691166 361.97190338 42.38220147 363.98776292 42.86328125 366.078125 C43.04205811 366.861875 43.22083496 367.645625 43.4050293 368.453125 C43.81154694 370.19329408 44.22068315 371.93285298 44.63208008 373.671875 C51.92713488 404.55454476 51.92713488 404.55454476 45 418 C41.57722143 422.56370476 37.57143399 424.93365729 32 426 C20.45612425 426.87599057 10.56768371 426.52166214 1.41015625 418.79296875 C-4.42932266 411.36825733 -2.83950234 398.8147746 -2 390 C-0.87414398 383.17681763 0.79450271 376.47809759 2.41015625 369.7578125 C12.92259934 326.00264675 13.41946021 279.82532362 13.95062256 235.03088379 C13.9854217 232.12222207 14.02426192 229.21363821 14.06500244 226.30505371 C14.20263251 216.40216631 14.31300925 206.49961324 14.37683868 196.59595299 C14.40689506 191.97290607 14.44646207 187.35043675 14.51031494 182.72772217 C14.57032001 178.32124599 14.6003567 173.91550697 14.60883141 169.50864029 C14.61690871 167.86647206 14.63529892 166.2243172 14.66477394 164.58239365 C14.891416 152.91079221 14.891416 152.91079221 9.68128967 142.66351318 C7.3104266 140.31771755 4.68733707 138.47837609 1.95703125 136.578125 C-4.35542474 131.48784113 -7.61892826 123.80918129 -9 116 C-10.03327846 101.65728177 -7.95334806 87.20467339 -6.54940796 72.94677734 C-5.8347292 65.68776371 -5.14647536 58.42624578 -4.46484375 51.1640625 C-4.39812029 50.45466774 -4.33139683 49.74527298 -4.26265144 49.01438141 C-3.04208331 35.98367093 -2.09828586 22.95166134 -1.49462891 9.87744141 C-1.41027588 8.08185791 -1.41027588 8.08185791 -1.32421875 6.25 C-1.28385498 5.24453125 -1.24349121 4.2390625 -1.2019043 3.203125 C-1 1 -1 1 0 0 Z " fill="#FBFDFE" transform="translate(765,239)"/>
<path d="M0 0 C0.94617188 0.78117187 1.89234375 1.56234375 2.8671875 2.3671875 C25.9879747 22.34407163 39.45807367 50.9191997 43 81 C43.27679846 85.3590849 43.33487393 89.69542827 43.3125 94.0625 C43.30686035 95.23353271 43.3012207 96.40456543 43.29541016 97.61108398 C42.83572054 130.94768373 31.24538494 160.11950116 8.125 184.25 C-0.34760212 192.42720236 -10.4685117 200.68629825 -21 206 C-21.66 205.67 -22.32 205.34 -23 205 C-22.31035156 204.33355469 -21.62070312 203.66710937 -20.91015625 202.98046875 C5.32640283 177.24776677 23.80639249 145.2430684 24.375 107.875 C24.3251319 75.37566503 9.65965313 44.49029714 -11 20 C-11.515625 19.33871094 -12.03125 18.67742187 -12.5625 17.99609375 C-23.96667386 3.8834286 -41.2335753 -5.83656782 -58 -12 C-58.77085937 -12.28488281 -59.54171875 -12.56976563 -60.3359375 -12.86328125 C-82.12375905 -20.11349491 -108.57842111 -20.66430461 -130.8828125 -15.65625 C-133.70569529 -15.06195889 -136.12978393 -14.87002795 -139 -15 C-131.17345945 -21.37438724 -120.79812007 -24.26442299 -111.1875 -26.8125 C-110.41204834 -27.0192334 -109.63659668 -27.2259668 -108.83764648 -27.43896484 C-70.56326595 -37.12259894 -29.7591644 -24.88809913 0 0 Z " fill="#FBFDFE" transform="translate(611,357)"/>
<path d="M0 0 C2.28125 1.0234375 2.28125 1.0234375 4 2 C3.67 2.66 3.34 3.32 3 4 C0.96875 4.59765625 0.96875 4.59765625 -1.5 5.0625 C-4.53773221 5.45864843 -4.53773221 5.45864843 -7 7 C-8.59595391 13.77527604 -6.50598804 18.80315304 -3.0625 24.5 C0.44477367 30.1040667 4.38578382 35.09975144 8.96875 39.87890625 C10.68325174 41.66924173 12.17655735 43.4797237 13.6875 45.4375 C20.28560284 53.19997393 29.64267673 60.06992423 39 64 C39.20625 63.154375 39.4125 62.30875 39.625 61.4375 C42.54827496 54.12931261 47.77622959 49.8796675 54.51953125 46.0234375 C58.17418857 44.51553164 60.27016033 44.86483141 64 46 C64.99 48.475 64.99 48.475 66 51 C65.40832031 51.15855469 64.81664062 51.31710937 64.20703125 51.48046875 C63.02173828 51.83044922 63.02173828 51.83044922 61.8125 52.1875 C61.03519531 52.40792969 60.25789062 52.62835937 59.45703125 52.85546875 C56.13518959 54.40284491 54.31327017 56.1553029 52 59 C50.76882689 62.54463211 50.76882689 62.54463211 50.1875 66.3125 C49.95417969 67.56675781 49.72085938 68.82101562 49.48046875 70.11328125 C49.32191406 71.06589844 49.16335938 72.01851562 49 73 C43.52640093 72.50932188 39.94982661 70.52872253 35.4375 67.625 C34.73858643 67.18019287 34.03967285 66.73538574 33.31958008 66.27709961 C26.36411067 61.74896805 20.09610106 56.61687922 14 51 C13.05511719 50.13761719 12.11023438 49.27523437 11.13671875 48.38671875 C5.89370016 43.38100793 1.36864842 38.13021211 -2.9375 32.3125 C-3.38625488 31.70696289 -3.83500977 31.10142578 -4.29736328 30.47753906 C-10.14150743 22.33062107 -14.28079012 14.26515609 -13 4 C-10.14775673 -1.08443365 -5.26619342 -0.79734619 0 0 Z " fill="#56C8E3" transform="translate(568,586)"/>
<path d="M0 0 C2.87029869 1.79393668 4.49131638 2.98263276 6 6 C6.52999351 9.78566792 6.83021253 13.44856036 4.98828125 16.890625 C1.87969895 20.73667878 -0.45760024 21.82538871 -5.3125 22.375 C-10.20301701 21.87765929 -11.57084492 20.42915508 -15 17 C-16.61429923 13.77140153 -16.59570657 10.49006347 -16 7 C-12.12106109 0.2408042 -7.34322629 -0.95119512 0 0 Z " fill="#F7FCFD" transform="translate(733,729)"/>
<path d="M0 0 C4.17146933 1.86664489 5.83967726 3.91081768 8 8 C8.47290668 11.85081154 8.35025658 14.1888795 6.8125 17.75 C4.02295936 21.21287803 1.54509204 22.69098159 -2.8125 23.5625 C-7.43378421 22.74697926 -10.67527291 20.26124782 -14 17 C-14.33 16.01 -14.66 15.02 -15 14 C-14.50371094 13.57589844 -14.00742187 13.15179687 -13.49609375 12.71484375 C-8.79678658 8.65756716 -4.32846012 4.45019806 0 0 Z " fill="#F5FBFC" transform="translate(680,677)"/>
<path d="M0 0 C0.99 0.66 1.98 1.32 3 2 C2.85833643 3.91697937 2.71150416 5.83357723 2.5625 7.75 C2.48128906 8.81734375 2.40007813 9.8846875 2.31640625 10.984375 C2.05909227 13.43679962 1.68187782 15.63921291 1 18 C1.54269531 17.4946875 2.08539062 16.989375 2.64453125 16.46875 C3.35996094 15.8190625 4.07539062 15.169375 4.8125 14.5 C5.52019531 13.8503125 6.22789062 13.200625 6.95703125 12.53125 C9 11 9 11 12 11 C12 15 12 15 10.80664062 16.64746094 C9.98969727 17.4329834 9.98969727 17.4329834 9.15625 18.234375 C8.56972656 18.80800781 7.98320313 19.38164063 7.37890625 19.97265625 C6.75886719 20.55917969 6.13882813 21.14570312 5.5 21.75 C4.87996094 22.35199219 4.25992188 22.95398438 3.62109375 23.57421875 C2.08955179 25.05863634 0.54590226 26.53054345 -1 28 C-2.32 27.34 -3.64 26.68 -5 26 C-4.85764543 24.27054347 -4.71095618 22.54144346 -4.5625 20.8125 C-4.48128906 19.84957031 -4.40007813 18.88664063 -4.31640625 17.89453125 C-4.02650639 15.24248442 -3.52320735 12.61603677 -3 10 C-5.64 12.64 -8.28 15.28 -11 18 C-12.32 17.34 -13.64 16.68 -15 16 C-10.30233025 10.33870569 -5.25276628 5.14771096 0 0 Z " fill="#F6FCFD" transform="translate(761,758)"/>
<path d="M0 0 C1.32 0.66 2.64 1.32 4 2 C2.15290757 6.37829317 -0.93708858 8.87879046 -4.41796875 12 C-6.28332037 13.87392919 -6.28332037 13.87392919 -5.73828125 16.25 C-5.16466707 18.14735579 -5.16466707 18.14735579 -3.328125 18.80859375 C-0.75117769 19.29048571 -0.75117769 19.29048571 1.578125 16.91015625 C2.45984375 15.97042969 3.3415625 15.03070312 4.25 14.0625 C5.14203125 13.12535156 6.0340625 12.18820312 6.953125 11.22265625 C7.96632813 10.12244141 7.96632813 10.12244141 9 9 C10.32 9.66 11.64 10.32 13 11 C11.03044835 13.36066829 9.02085831 15.68318075 7 18 C6.50886719 18.59425781 6.01773438 19.18851563 5.51171875 19.80078125 C2.91096332 22.73802256 1.32336261 23.93759669 -2.5625 24.6875 C-6.98109797 23.80378041 -8.45005208 22.70901516 -11 19 C-12.28978457 14.32453092 -12.28978457 14.32453092 -11 11 C-7.63589106 6.96519846 -3.93272808 3.47305856 0 0 Z " fill="#F4FBFC" transform="translate(745,743)"/>
<path d="M0 0 C2.50041894 0.08168338 3.83455801 0.19140582 6.0625 1.375 C7.58940415 4.33337678 7.24718872 7.04966599 7.0625 10.3125 C5.7425 10.3125 4.4225 10.3125 3.0625 10.3125 C2.7325 8.6625 2.4025 7.0125 2.0625 5.3125 C1.0725 5.3125 0.0825 5.3125 -0.9375 5.3125 C-0.793125 5.828125 -0.64875 6.34375 -0.5 6.875 C-0.314375 7.679375 -0.12875 8.48375 0.0625 9.3125 C0.330625 10.4675 0.59875 11.6225 0.875 12.8125 C1.0625 16.3125 1.0625 16.3125 -0.5 18.75 C-3.63237121 20.75793026 -5.27897708 20.92225382 -8.9375 20.3125 C-11.3125 18.75 -11.3125 18.75 -12.9375 16.3125 C-13.1875 12.5625 -13.1875 12.5625 -12.9375 9.3125 C-11.6175 9.3125 -10.2975 9.3125 -8.9375 9.3125 C-8.6075 10.9625 -8.2775 12.6125 -7.9375 14.3125 C-6.6175 14.6425 -5.2975 14.9725 -3.9375 15.3125 C-4.453125 14.28125 -4.96875 13.25 -5.5 12.1875 C-7.05807133 8.56424923 -7.09925471 6.15522712 -5.9375 2.3125 C-3.9375 0.3125 -3.9375 0.3125 0 0 Z " fill="#F2FAFC" transform="translate(700.9375,699.6875)"/>
<path d="M0 0 C3.6578218 2.03993908 5.66946174 3.50419262 8 7 C8.125 9.6875 8.125 9.6875 8 12 C6.68 12 5.36 12 4 12 C3.71125 11.195625 3.4225 10.39125 3.125 9.5625 C2.26737432 6.8673532 2.26737432 6.8673532 0 6 C-3.07155269 5.73859126 -5.199384 5.56095252 -7.9375 7.0625 C-9.70741998 10.29000113 -8.98191918 12.56328286 -8 16 C-5.50240018 17.69882448 -5.50240018 17.69882448 -3 19 C-3 20.32 -3 21.64 -3 23 C-6.68684241 22.74277844 -8.78603703 22.14419243 -11.875 20.0625 C-14.87036061 15.74565676 -14.91557087 12.10703751 -14 7 C-10.62437586 1.21321576 -6.63336797 -0.79600416 0 0 Z " fill="#F3FBFC" transform="translate(716,713)"/>
<path d="M0 0 C3.3125 1 3.3125 1 5.3125 4 C5.75 6.375 5.75 6.375 5.3125 9 C2.98782674 11.98886562 1.50101166 13.7391072 -2.25 14.5625 C-5.51304994 13.80948847 -6.72291251 12.69221249 -8.6875 10 C-9.25 7.5625 -9.25 7.5625 -8.6875 5 C-5.93489526 1.16303582 -4.80058673 0 0 0 Z " fill="#55C8E3" transform="translate(729.6875,733)"/>
<path d="M0 0 C1.12588014 0.95729916 2.2506715 1.91587895 3.375 2.875 C4.00148438 3.40867187 4.62796875 3.94234375 5.2734375 4.4921875 C6.55836651 5.61432007 7.79371975 6.79371975 9 8 C8.625 10.125 8.625 10.125 8 12 C7.12085938 11.73316406 6.24171875 11.46632813 5.3359375 11.19140625 C1.86694322 10.63170211 1.86694322 10.63170211 -0.7734375 13.08984375 C-2.06121094 14.49943359 -2.06121094 14.49943359 -3.375 15.9375 C-4.24898437 16.87464844 -5.12296875 17.81179688 -6.0234375 18.77734375 C-6.67570313 19.51082031 -7.32796875 20.24429688 -8 21 C-9.32 20.34 -10.64 19.68 -12 19 C-11.10698344 17.93513145 -10.2104053 16.87324959 -9.3125 15.8125 C-8.77109375 15.17183594 -8.2296875 14.53117188 -7.671875 13.87109375 C-6 12 -6 12 -3.0625 9.375 C-2.381875 8.59125 -1.70125 7.8075 -1 7 C-1.23043864 4.34533951 -1.23043864 4.34533951 -2 2 C-1.34 1.34 -0.68 0.68 0 0 Z " fill="#F5FBFD" transform="translate(776,773)"/>
<path d="M0 0 C2.18408203 0.35083008 2.18408203 0.35083008 4 1 C2.67879172 3.93230193 1.25361803 5.98664899 -1.0390625 8.234375 C-1.90917969 9.09482422 -1.90917969 9.09482422 -2.796875 9.97265625 C-3.40015625 10.55917969 -4.0034375 11.14570312 -4.625 11.75 C-5.23601563 12.35199219 -5.84703125 12.95398438 -6.4765625 13.57421875 C-7.97988624 15.05405305 -9.48934856 16.52764676 -11 18 C-11.99 17.34 -12.98 16.68 -14 16 C-12.32357676 11.74685214 -9.2824091 8.87898186 -6.125 5.6875 C-5.59519531 5.12482422 -5.06539062 4.56214844 -4.51953125 3.98242188 C-2.9453125 2.38671875 -2.9453125 2.38671875 0 0 Z " fill="#FAFDFD" transform="translate(694,692)"/>
<path d="M0 0 C0.99 0.33 1.98 0.66 3 1 C4.05082025 4.76543923 4.3391456 6.3759721 2.4375 9.875 C0 12 0 12 -3.0625 12.5 C-6 12 -6 12 -9 9 C-6.03 6.03 -3.06 3.06 0 0 Z " fill="#54C8E3" transform="translate(680,683)"/>
<path d="M0 0 C0.66 0.33 1.32 0.66 2 1 C2.36190476 6.42857143 2.36190476 6.42857143 0.8125 8.875 C-1.56036279 10.34781139 -3.25913944 10.22223194 -6 10 C-4.34832443 6.4213696 -2.21713508 3.25179812 0 0 Z " fill="#55C8E3" transform="translate(648,660)"/>
<path d="M0 0 C1.32 0.66 2.64 1.32 4 2 C4 3.32 4 4.64 4 6 C2.35 5.67 0.7 5.34 -1 5 C-0.67 3.35 -0.34 1.7 0 0 Z " fill="#5FCBE4" transform="translate(693,709)"/>
<path d="M0 0 C2 1 2 1 3 3 C-1.455 3.495 -1.455 3.495 -6 4 C-4.03617993 2.49440461 -2.21736634 1.10868317 0 0 Z " fill="#DCF3F9" transform="translate(478,338)"/>
</svg>
